# xmcd
#
# Track frame offsets: 
#        183
#        11365
#        25855
#        37213
#        50628
#        60708
#        71503
#        81980
#        92918
#        101773
#        114523
#        123558
#        136830
#        149270
#        158940
#        170515
#        184910
#        198138
#        211248
#        226428
#
# Disc length: 3180 seconds
#
# Revision: 2
# Processed by: cddbd v1.4PL0 Copyright (c) Steve Scherf et al.
# Submitted via: ExactAudioCopy v0.90b3
#
DISCID=1f0c6a14
DTITLE=Merle Haggard - 25th Anniversary Album
DYEAR=1900
DGENRE=Country
TTITLE0=Please Mr. D.J.
TTITLE1=I Wonder What She'll Think About Me Leaving
TTITLE2=Life's Like Poetry
TTITLE3=Holding Things Together
TTITLE4=I've Done It All
TTITLE5=Home Is Where A Kid Grows Up
TTITLE6=The Girl Turned Ripe
TTITLE7=Irma Jackson
TTITLE8=White Man Singing The Blues
TTITLE9=Love And Honor
TTITLE10=I'm Gonna Break Every Heart I Can
TTITLE11=The Farmer's Daughter
TTITLE12=Wine Take Me Away
TTITLE13=I Wonder Where I'll Find You At Tonight
TTITLE14=Someone Told My Story
TTITLE15=After Loving You
TTITLE16=A Working Man Can'T Get Nowhere Today
TTITLE17=I Can't Hold Myself In Line
TTITLE18=The Way It Was In '51
TTITLE19=Silver Wings
EXTD=
EXTT0=
EXTT1=
EXTT2=
EXTT3=
EXTT4=
EXTT5=
EXTT6=
EXTT7=
EXTT8=
EXTT9=
EXTT10=
EXTT11=
EXTT12=
EXTT13=
EXTT14=
EXTT15=
EXTT16=
EXTT17=
EXTT18=
EXTT19=
PLAYORDER=
